<?xml version="1.0" encoding="utf-8"?>
<!-- Generator: Adobe Illustrator 25.0.0, SVG Export Plug-In . SVG Version: 6.00 Build 0)  -->
<svg version="1.1" id="Layer_1" xmlns="http://www.w3.org/2000/svg" xmlns:xlink="http://www.w3.org/1999/xlink" x="0px" y="0px"
	 viewBox="0 0 566 756" style="enable-background:new 0 0 566 756;" xml:space="preserve">
<style type="text/css">
	.st0{fill:#FFD740;}
</style>
<path class="st0" d="M254.2,318.5c0.6-81,1.2-162,1.7-243c0.1-7.8,3.1-12.8,9.1-15.2c6.3-2.5,12-0.8,17.3,5.1
	c18.5,20.6,36.9,41.2,55.6,61.6c3.7,3.9,5.7,9.1,5.5,14.5c-0.6,152.7-1.1,305.3-1.5,458c-0.1,22.8,1.5,18.8-15.7,34.3
	c-18.8,17-37.7,33.8-56.4,50.9c-10.4,9.4-21.7,17.1-35.2,21.1c-16.6,4.8-33,3.6-49-2.3c-17.9-6.4-34-17.3-46.7-31.4
	c-34.4-38.6-69-77-103.6-115.3c-11.2-12.3-16.8-26.7-17.9-42.9c-2.5-36.7,10-67.8,36.6-92.9c21.6-20.3,44-39.8,66-59.6
	c3.1-2.8,6.3-3.8,10-1.5c3.7,2.3,3.8,5.5,2.9,9.2c-6.6,29.5-13,59.1-19.8,88.6c-4.9,21.2-1.9,41.1,9.9,59.3
	c5.8,8.9,12.3,17.4,19.3,25.4c14.1,16.2,28.6,32.1,43.1,48c3.2,3.6,6.7,7,10.5,10c13.9,10.6,28.2,9.9,41.2-1.9
	c3.8-3.5,6.9-7.3,9.3-11.4c6.6-11.4,6.5-23,6.6-26.6C252.8,541.7,253.8,447.5,254.2,318.5z"/>
<path class="st0" d="M470.7,331.7c0,16.2,0,32.3,0,48.5c0,11.3,5.6,16.8,17,16.7c18-0.2,36-0.4,54-0.7c3.7-0.1,7.2,0.2,8.9,4
	s-0.4,6.6-3,9.2c-47.3,48.1-94.5,96.3-141.8,144.6c-3.9,4-8.2,5.8-13.5,3.7s-6.6-6.4-6.7-11.7c-1-87.1-2-174.3-3.1-261.4
	c-0.3-23-0.5-46-0.8-69c-0.1-8.1,3-13.1,9.3-15.4s11.6-0.8,16.9,5.1c19.3,21.4,38.6,42.8,57.9,64.2c3.2,3.5,4.9,8,4.8,12.7
	C470.7,298.7,470.7,315.2,470.7,331.7L470.7,331.7z"/>
</svg>
